<?xml version="1.0" encoding="UTF-8"?>
<svg id="Layer_2" xmlns="http://www.w3.org/2000/svg" viewBox="0 0 309 309">
  <defs>
    <style>
      .cls-1 {
        fill: #f15a24;
      }

      .cls-2 {
        fill: none;
      }

      .cls-2, .cls-3, .cls-4, .cls-5, .cls-6, .cls-7, .cls-8 {
        stroke: #000;
        stroke-linecap: round;
      }

      .cls-2, .cls-3, .cls-4, .cls-5, .cls-6, .cls-8 {
        stroke-width: 5px;
      }

      .cls-2, .cls-4, .cls-5, .cls-6, .cls-7, .cls-8 {
        stroke-linejoin: round;
      }

      .cls-5 {
        fill: #323232;
      }

      .cls-6, .cls-7 {
        fill: #646464;
      }

      .cls-7 {
        stroke-width: 5px;
      }

      .cls-9 {
        fill: #b64500;
      }

      .cls-8 {
        fill: #c8c8c8;
      }
    </style>
  </defs>
  <g id="Layer_1-2" data-name="Layer_1">
    <g>
      <rect class="cls-1" width="309" height="309"/>
      <polygon class="cls-9" points="309 176.58 280.42 122.35 25.83 207.94 78.07 309 309 309 309 176.58"/>
      <g id="layer1">
        <g id="g3462">
          <path id="path3415" class="cls-8" d="M173.28,66.11c-10.22,1.55-20.54,5.48-30,11.8l-.03-.03-1.31.97c-1.04.73-2.09,1.48-3.11,2.26-.29.22-.58.43-.86.66L21.97,166.74l5.73,38.35,48.87,38.55,70.19-53.87,30.37,23.88c.22.18.44.35.67.52l.67.52.03-.03c21.44,15.9,54.7,14.11,80.12-6.07,29.5-23.42,37.3-62.77,17.42-87.81-2.81-3.54-6.03-6.56-9.56-9.15l.03-.03-51.23-36.68c-11.7-8.14-26.73-11.12-41.98-8.81Z"/>
          <path id="path3407" class="cls-7" d="M191,114.58c31.03-21.33,70.31-16.84,87.75,10.03,17.44,26.87,6.42,65.94-24.6,87.26-31.03,21.33-70.31,16.84-87.75-10.03-4.09-6.31-6.73-13.53-7.77-21.26"/>
          <path id="path3409" class="cls-2" d="M70.89,205.7l-48.91-38.97"/>
          <path id="path3411" class="cls-6" d="M192.79,113.3l-121.9,92.41,5.68,37.94,83.74-65.31"/>
          <path id="path3413" class="cls-5" d="M181.17,107.02l-14.35,10.51-30.55-23.43,14.35-10.51,30.55,23.43Z"/>
          <path id="path3417" class="cls-4" d="M27.81,204.89l21.56-16.13"/>
          <path id="path3419" class="cls-3" d="M24.18,169.77l44.94,35.9,5.22,34.95-44.88-35.52-5.27-35.33Z"/>
          <path id="path3442" d="M158.67,180.64l-11.91,9.13,30.37,23.88c-2.92-2.32-5.6-4.98-7.99-7.99-5.84-7.36-9.25-15.97-10.47-25.02Z"/>
        </g>
      </g>
    </g>
  </g>
</svg>