<?xml version="1.0" encoding="UTF-8"?>
<svg id="Layer_2" xmlns="http://www.w3.org/2000/svg" viewBox="0 0 822.95 216.91">
  <defs>
    <style>
      .cls-1 {
        fill: #f15a24;
      }

      .cls-2 {
        fill: none;
      }

      .cls-2, .cls-3, .cls-4, .cls-5, .cls-6, .cls-7, .cls-8 {
        stroke: #000;
        stroke-linecap: round;
      }

      .cls-2, .cls-3, .cls-4, .cls-5, .cls-6, .cls-8 {
        stroke-width: 5px;
      }

      .cls-2, .cls-4, .cls-5, .cls-6, .cls-7, .cls-8 {
        stroke-linejoin: round;
      }

      .cls-5 {
        fill: #323232;
      }

      .cls-6, .cls-7 {
        fill: #646464;
      }

      .cls-7 {
        stroke-width: 5px;
      }

      .cls-8 {
        fill: #c8c8c8;
      }
    </style>
  </defs>
  <g id="Layer_1-2" data-name="Layer_1">
    <g>
      <g>
        <path d="M274.28,1.17h25.07c13.41,0,21.96,7.71,21.96,20.2,0,8.63-4.11,15.01-11.15,18.11l12.16,20.37h-15.42l-10.48-18.28h-8.8v18.28h-13.33V1.17ZM297.58,30.35c6.54,0,10.23-3.19,10.23-8.89s-3.69-8.89-10.23-8.89h-10.14v17.77h10.14Z"/>
        <path d="M332.12,35.71V1.17h13.33v33.62c0,8.97,3.77,13.58,11.23,13.58s11.23-4.61,11.23-13.58V1.17h13.33v34.54c0,15.76-9.3,25.32-24.56,25.32s-24.56-9.56-24.56-25.32Z"/>
        <path d="M391.3,30.51c0-17.86,12.66-30.51,30.51-30.51,14.25,0,25.9,8.05,29.43,20.37h-14.34c-2.85-5.11-8.3-8.13-14.84-8.13-10.31,0-17.44,7.54-17.44,18.27s6.88,18.28,17.61,18.28c8.55,0,14.59-4.78,16.26-11.9h-19.03v-10.31h33.11c1.34,20.12-11.15,34.46-30.51,34.46-18.02,0-30.77-12.58-30.77-30.52Z"/>
        <path d="M463.15,1.17h26.24c11.9,0,19.53,6.12,19.53,15.76,0,5.53-2.6,10.14-7.04,12.74,5.53,2.43,8.8,7.46,8.8,13.75,0,9.89-8.05,16.43-19.95,16.43h-27.58V1.17ZM487.38,25.07c5.11,0,7.96-2.43,7.96-6.71s-2.85-6.62-7.96-6.62h-11.07v13.33h11.07ZM488.72,49.29c5.28,0,8.3-2.6,8.3-7.04s-3.02-7.04-8.3-7.04h-12.41v14.08h12.41Z"/>
        <path d="M533.9,39.32l-21.63-38.14h15.17l7.29,13.58,5.87,10.65,5.78-10.65,7.21-13.58h15.17l-21.54,37.98v20.71h-13.33v-20.54Z"/>
        <path class="cls-1" d="M304.28,78.02h25.07c13.41,0,21.96,7.71,21.96,20.2,0,8.63-4.11,15.01-11.15,18.11l12.16,20.37h-15.42l-10.48-18.28h-8.8v18.28h-13.33v-58.68ZM327.58,107.19c6.54,0,10.23-3.19,10.23-8.89s-3.69-8.89-10.23-8.89h-10.14v17.77h10.14Z"/>
        <path class="cls-1" d="M363.29,78.02h38.56v11.23h-25.32v12.16h23.05v11.15h-23.05v12.83h26.24v11.32h-39.48v-58.68Z"/>
        <path class="cls-1" d="M414.09,78.02h36.8v12.07h-23.47v14.67h21.29v11.74h-21.29v20.2h-13.33v-58.68Z"/>
        <path class="cls-1" d="M461.63,78.02h38.56v11.23h-25.32v12.16h23.05v11.15h-23.05v12.83h26.24v11.32h-39.48v-58.68Z"/>
        <path class="cls-1" d="M512.43,78.02h25.07c13.41,0,21.96,7.71,21.96,20.2,0,8.63-4.11,15.01-11.15,18.11l12.16,20.37h-15.42l-10.48-18.28h-8.8v18.28h-13.33v-58.68ZM535.73,107.19c6.54,0,10.23-3.19,10.23-8.89s-3.69-8.89-10.23-8.89h-10.14v17.77h10.14Z"/>
        <path class="cls-1" d="M571.45,78.02h38.56v11.23h-25.32v12.16h23.05v11.15h-23.05v12.83h26.24v11.32h-39.48v-58.68Z"/>
        <path class="cls-1" d="M622.25,78.02h38.56v11.23h-25.32v12.16h23.05v11.15h-23.05v12.83h26.24v11.32h-39.48v-58.68Z"/>
        <path class="cls-1" d="M673.05,78.02h13.33v58.68h-13.33v-58.68Z"/>
        <path class="cls-1" d="M700.46,78.02h11.32l25.9,35.71v-35.71h13.25v58.68h-11.32l-25.9-35.96v35.96h-13.25v-58.68Z"/>
        <path class="cls-1" d="M761.57,107.36c0-17.86,12.66-30.51,30.51-30.51,14.25,0,25.9,8.05,29.43,20.37h-14.34c-2.85-5.11-8.3-8.13-14.84-8.13-10.31,0-17.44,7.54-17.44,18.27s6.88,18.28,17.61,18.28c8.55,0,14.59-4.78,16.26-11.9h-19.03v-10.31h33.11c1.34,20.12-11.15,34.46-30.51,34.46-18.02,0-30.77-12.58-30.77-30.52Z"/>
        <path d="M291.29,154.87h13.08l23.3,58.68h-14.25l-3.94-10.14h-23.3l-3.94,10.14h-14.25l23.3-58.68ZM306.13,192.93l-8.3-21.46-8.22,21.46h16.51Z"/>
        <path d="M329.19,184.21c0-17.94,12.49-30.51,30.26-30.51,14.92,0,26.66,9.05,30.01,23.14h-13.75c-2.26-6.46-8.38-10.48-15.84-10.48-9.98,0-17.1,7.29-17.1,17.86s7.04,17.86,17.02,17.86c7.71,0,13.92-4.28,16.35-10.98h13.75c-2.93,14.25-14.92,23.64-30.35,23.64-17.86,0-30.35-12.57-30.35-30.52Z"/>
        <path d="M414.44,154.87h13.08l23.3,58.68h-14.25l-3.94-10.14h-23.3l-3.94,10.14h-14.25l23.3-58.68ZM429.28,192.93l-8.3-21.46-8.22,21.46h16.52Z"/>
        <path d="M458.62,154.87h23.22c18.53,0,30.93,11.9,30.93,29.34s-12.41,29.34-30.93,29.34h-23.22v-58.68ZM481.59,201.31c10.4,0,17.52-6.79,17.52-17.1s-7.12-17.1-17.69-17.1h-9.47v34.2h9.64Z"/>
        <path d="M537.51,154.87h13.08l23.3,58.68h-14.25l-3.94-10.14h-23.3l-3.94,10.14h-14.25l23.3-58.68ZM552.35,192.93l-8.3-21.46-8.22,21.46h16.51Z"/>
        <path d="M581.69,154.87h11.32l20.87,30.43,20.79-30.43h11.23v58.68h-13.25v-35.29l-14.25,20.79h-9.22l-14.25-20.87v35.38h-13.25v-58.68Z"/>
        <path d="M675.33,193.01l-21.63-38.14h15.17l7.29,13.58,5.87,10.65,5.78-10.65,7.21-13.58h15.17l-21.54,37.98v20.71h-13.33v-20.54Z"/>
      </g>
      <g id="layer1">
        <g id="g3462">
          <path id="path3415" class="cls-8" d="M153.81,36.52c-10.22,1.55-20.54,5.48-30,11.8l-.03-.03-1.31.97c-1.04.73-2.09,1.48-3.11,2.26-.29.22-.58.43-.86.66L2.5,137.15l5.73,38.35,48.87,38.55,70.19-53.87,30.37,23.88c.22.18.44.35.67.52l.67.52.03-.03c21.44,15.9,54.7,14.11,80.12-6.07,29.5-23.42,37.3-62.77,17.42-87.81-2.81-3.54-6.03-6.56-9.56-9.15l.03-.03-51.23-36.68c-11.7-8.14-26.73-11.12-41.98-8.81Z"/>
          <path id="path3407" class="cls-7" d="M171.53,84.98c31.03-21.33,70.31-16.84,87.75,10.03,17.44,26.87,6.42,65.94-24.6,87.26-31.03,21.33-70.31,16.84-87.75-10.03-4.09-6.31-6.73-13.53-7.77-21.26"/>
          <path id="path3409" class="cls-2" d="M51.42,176.11L2.51,137.14"/>
          <path id="path3411" class="cls-6" d="M173.32,83.7l-121.9,92.41,5.68,37.94,83.74-65.31"/>
          <path id="path3413" class="cls-5" d="M161.7,77.43l-14.35,10.51-30.55-23.43,14.35-10.51,30.55,23.43Z"/>
          <path id="path3417" class="cls-4" d="M8.34,175.3l21.56-16.13"/>
          <path id="path3419" class="cls-3" d="M4.71,140.18l44.94,35.9,5.22,34.95-44.88-35.52-5.27-35.33Z"/>
          <path id="path3442" d="M139.2,151.05l-11.91,9.13,30.37,23.88c-2.92-2.32-5.6-4.98-7.99-7.99-5.84-7.36-9.25-15.97-10.47-25.02Z"/>
        </g>
      </g>
    </g>
  </g>
</svg>